<svg width="192" height="192" viewBox="0 0 192 192" fill="none" xmlns="http://www.w3.org/2000/svg">
  <!-- Background Circle with gradient -->
  <defs>
    <linearGradient id="bgGradient" x1="0%" y1="0%" x2="100%" y2="100%">
      <stop offset="0%" style="stop-color:#673de6"/>
      <stop offset="100%" style="stop-color:#8c85ff"/>
    </linearGradient>
  </defs>
  
  <circle cx="96" cy="96" r="96" fill="url(#bgGradient)"/>
  
  <!-- Main Text -->
  <text x="96" y="80" font-family="Arial, sans-serif" font-size="36" font-weight="bold" text-anchor="middle" fill="white">T4H</text>
  
  <!-- Subtitle -->
  <text x="96" y="105" font-family="Arial, sans-serif" font-size="14" font-weight="normal" text-anchor="middle" fill="white" opacity="0.9">CANVAS</text>
  
  <!-- Canvas/Door representation -->
  <rect x="66" y="120" width="60" height="40" rx="6" fill="white" opacity="0.95"/>
  
  <!-- Grid pattern representing canvassing data -->
  <g fill="#673de6" opacity="0.7">
    <rect x="72" y="126" width="8" height="6" rx="1"/>
    <rect x="84" y="126" width="8" height="6" rx="1"/>
    <rect x="96" y="126" width="8" height="6" rx="1"/>
    <rect x="108" y="126" width="8" height="6" rx="1"/>
    
    <rect x="72" y="136" width="8" height="6" rx="1"/>
    <rect x="84" y="136" width="8" height="6" rx="1"/>
    <rect x="96" y="136" width="8" height="6" rx="1"/>
    <rect x="108" y="136" width="8" height="6" rx="1"/>
    
    <rect x="72" y="146" width="8" height="6" rx="1"/>
    <rect x="84" y="146" width="8" height="6" rx="1"/>
    <rect x="96" y="146" width="8" height="6" rx="1"/>
    <rect x="108" y="146" width="8" height="6" rx="1"/>
  </g>
  
  <!-- Small accent -->
  <circle cx="114" cy="140" r="3" fill="#fc5185"/>
</svg>