<svg width="512" height="512" viewBox="0 0 512 512" fill="none" xmlns="http://www.w3.org/2000/svg">
  <!-- Background Circle with gradient -->
  <defs>
    <linearGradient id="bgGradient512" x1="0%" y1="0%" x2="100%" y2="100%">
      <stop offset="0%" style="stop-color:#673de6"/>
      <stop offset="100%" style="stop-color:#8c85ff"/>
    </linearGradient>
  </defs>
  
  <circle cx="256" cy="256" r="256" fill="url(#bgGradient512)"/>
  
  <!-- Main Text -->
  <text x="256" y="220" font-family="Arial, sans-serif" font-size="96" font-weight="bold" text-anchor="middle" fill="white">T4H</text>
  
  <!-- Subtitle -->
  <text x="256" y="270" font-family="Arial, sans-serif" font-size="36" font-weight="normal" text-anchor="middle" fill="white" opacity="0.9">CANVAS</text>
  
  <!-- Canvas/Door representation -->
  <rect x="176" y="320" width="160" height="120" rx="16" fill="white" opacity="0.95"/>
  
  <!-- Grid pattern representing canvassing data -->
  <g fill="#673de6" opacity="0.7">
    <!-- Row 1 -->
    <rect x="192" y="340" width="24" height="16" rx="2"/>
    <rect x="224" y="340" width="24" height="16" rx="2"/>
    <rect x="256" y="340" width="24" height="16" rx="2"/>
    <rect x="288" y="340" width="24" height="16" rx="2"/>
    
    <!-- Row 2 -->
    <rect x="192" y="364" width="24" height="16" rx="2"/>
    <rect x="224" y="364" width="24" height="16" rx="2"/>
    <rect x="256" y="364" width="24" height="16" rx="2"/>
    <rect x="288" y="364" width="24" height="16" rx="2"/>
    
    <!-- Row 3 -->
    <rect x="192" y="388" width="24" height="16" rx="2"/>
    <rect x="224" y="388" width="24" height="16" rx="2"/>
    <rect x="256" y="388" width="24" height="16" rx="2"/>
    <rect x="288" y="388" width="24" height="16" rx="2"/>
    
    <!-- Row 4 -->
    <rect x="192" y="412" width="24" height="16" rx="2"/>
    <rect x="224" y="412" width="24" height="16" rx="2"/>
    <rect x="256" y="412" width="24" height="16" rx="2"/>
    <rect x="288" y="412" width="24" height="16" rx="2"/>
  </g>
  
  <!-- Small accent -->
  <circle cx="300" cy="380" r="8" fill="#fc5185"/>
</svg>